<svg xmlns="http://www.w3.org/2000/svg" viewBox="0 0 64 64"><g id="_19-Zombie" data-name="19-Zombie"><rect x="45.586" y="1" width="2.828" height="2" transform="translate(12.352 33.82) rotate(-45)" style="fill:#679c20"/><path d="M17,58v5H9c0-1.84.04-3.51.11-5Z" style="fill:#e3b79d"/><rect x="36" y="56" width="12" height="7" style="fill:#e3b79d"/><path d="M61,40a15.069,15.069,0,0,0-4.64,3.36L52,39l4-4,.04-.06A29.162,29.162,0,0,1,61,40Z" style="fill:#e3b79d"/><path d="M12,39,7.64,43.36A15.069,15.069,0,0,0,3,40a29.162,29.162,0,0,1,4.96-5.06L8,35Z" style="fill:#e3b79d"/><path d="M56.36,43.36A15.069,15.069,0,0,1,61,40a183.807,183.807,0,0,1,2,23H55a79.035,79.035,0,0,0-1-14A8.294,8.294,0,0,1,56.36,43.36Z" style="fill:#966857"/><path d="M9.11,58C9.04,59.49,9,61.16,9,63H1A183.807,183.807,0,0,1,3,40a15.069,15.069,0,0,1,4.64,3.36A8.294,8.294,0,0,1,10,49,66.438,66.438,0,0,0,9.11,58Z" style="fill:#966857"/><path d="M52,39l4.36,4.36A8.294,8.294,0,0,0,54,49a79.035,79.035,0,0,1,1,14H48V56H36v7H17V58H9.11A66.438,66.438,0,0,1,10,49a8.294,8.294,0,0,0-2.36-5.64L12,39,8,35l-.04-.06C12.97,31,17,31,17,31v2a4,4,0,0,0,4,4h2v2a2.006,2.006,0,0,0,2,2h1s0,6,6,6,6-6,6-6h1a2.006,2.006,0,0,0,2-2V37h2a4,4,0,0,0,4-4V31s4.03,0,9.04,3.94L56,35Z" style="fill:#bf947a"/><path d="M26,41H38s0,6-6,6S26,41,26,41Z" style="fill:#679c20"/><path d="M17,22v2H15a2.006,2.006,0,0,1-2-2V16h4Z" style="fill:#679c20"/><path d="M51,16v6a2.006,2.006,0,0,1-2,2H47V16Z" style="fill:#679c20"/><path d="M30.59,17H21.41a5.011,5.011,0,0,1,9.18,0Z" style="fill:#a7e340"/><circle cx="39" cy="19" r="4" style="fill:#f2f6fc"/><path d="M30.59,17A5.106,5.106,0,0,1,31,19a5,5,0,0,1-10,0,5.106,5.106,0,0,1,.41-2Z" style="fill:#cdd2e1"/><path d="M21.41,19a5.14,5.14,0,0,0-.307,1.01,5,5,0,0,0,9.794,0A5.14,5.14,0,0,0,30.59,19Z" style="fill:#f2f6fc"/><rect x="27" y="29" width="10" height="8" style="fill:#9f72fc"/><path d="M30,29H27v8H37V34H35A5,5,0,0,1,30,29Z" style="fill:#8457e5"/><path d="M47,24v9a4,4,0,0,1-4,4H41V28a2.938,2.938,0,0,0,3-3,2.938,2.938,0,0,1,3-3Z" style="fill:#86c42b"/><path d="M20,25a2.938,2.938,0,0,0,3,3v9H21a4,4,0,0,1-4-4V22A2.938,2.938,0,0,1,20,25Z" style="fill:#86c42b"/><path d="M21,1h7c0,11-11,11-11,11V5A4,4,0,0,1,21,1Z" style="fill:#86c42b"/><path d="M47,5v7C36,12,36,1,36,1h7A4,4,0,0,1,47,5Z" style="fill:#a7e340"/><path d="M20,25a2.938,2.938,0,0,0-3-3V12S28,12,28,1h8s0,11,11,11V22a2.938,2.938,0,0,0-3,3,2.938,2.938,0,0,1-3,3V39a2.006,2.006,0,0,1-2,2H25a2.006,2.006,0,0,1-2-2V28A2.938,2.938,0,0,1,20,25Zm10.59-8a5.011,5.011,0,0,0-9.18,0A5.106,5.106,0,0,0,21,19a5,5,0,0,0,10,0A5.106,5.106,0,0,0,30.59,17ZM43,19a4,4,0,1,0-4,4A4,4,0,0,0,43,19ZM37,37V29H27v8Z" style="fill:#cdf55f"/><rect x="29" y="29" width="2" height="3" style="fill:#f2f6fc"/><rect x="33" y="34" width="2" height="3" style="fill:#f2f6fc"/><rect x="38" y="18" width="2" height="2" style="fill:#7e8596"/><rect x="25" y="17" width="2" height="3" style="fill:#7e8596"/><rect x="25.5" y="3.585" width="2" height="5.831" transform="translate(7.292 25.879) rotate(-59.036)" style="fill:#7e8596"/><rect x="22" y="7.172" width="2" height="5.657" transform="translate(-0.335 19.192) rotate(-45)" style="fill:#7e8596"/><rect x="47" y="10" width="3" height="2" style="fill:#679c20"/><rect x="9" y="38.172" width="2" height="5.657" transform="translate(-26.062 19.08) rotate(-45)" style="fill:#966857"/><rect x="51.172" y="40" width="5.657" height="2" transform="translate(-13.175 50.192) rotate(-45)" style="fill:#966857"/><rect x="39" y="54" width="2" height="4" style="fill:#966857"/><rect x="43" y="54" width="2" height="4" style="fill:#966857"/><rect x="34" y="59" width="4" height="2" style="fill:#966857"/><rect x="46" y="59" width="4" height="2" style="fill:#966857"/><rect x="12" y="56" width="2" height="4" style="fill:#966857"/><path d="M61.988,39.848a1.01,1.01,0,0,0-.2-.462c-5.753-7.4-11.524-8.96-13.79-9.293V25h1a3,3,0,0,0,3-3V16a1,1,0,0,0-1-1H48V12h2V10H48V5a4.94,4.94,0,0,0-.481-2.1l1.188-1.188L47.293.293l-.986.986A4.961,4.961,0,0,0,43,0H21a5.006,5.006,0,0,0-5,5V15H13a1,1,0,0,0-1,1v6a3,3,0,0,0,3,3h1v5.093c-2.266.333-8.037,1.9-13.79,9.293a1.01,1.01,0,0,0-.2.462A186.248,186.248,0,0,0,0,63a1,1,0,0,0,1,1H63a1,1,0,0,0,1-1A186.248,186.248,0,0,0,61.988,39.848ZM48,17h2v5a1,1,0,0,1-1,1H48ZM59.436,39.678a16.309,16.309,0,0,0-3.085,2.259L55.414,41l1.293-1.293-1.414-1.414L54,39.586,53.414,39l2.694-2.694A27.753,27.753,0,0,1,59.436,39.678ZM43,2a3,3,0,0,1,3,3v5.962C38.792,10.451,37.356,4.435,37.071,2ZM18,5a3,3,0,0,1,3-3h5.962a10.666,10.666,0,0,1-.7,3.194L24.515,4.143l-1.03,1.714,1.839,1.1A8.369,8.369,0,0,1,23.36,8.946L21.707,7.293,20.293,8.707l1.266,1.266A12.568,12.568,0,0,1,18,10.928Zm0,7.926a15.129,15.129,0,0,0,5.038-1.474l1.255,1.255,1.414-1.414-.926-.926A10.083,10.083,0,0,0,27.055,8l1.43.857,1.03-1.714-1.5-.9A12.6,12.6,0,0,0,28.968,2h6.106C35.388,4.777,37.066,12.435,46,12.968V33a3,3,0,0,1-3,3H42V28.874A3.788,3.788,0,0,0,45,25H43a1.884,1.884,0,0,1-2,2,1,1,0,0,0-1,1V39a1,1,0,0,1-1,1H25a1,1,0,0,1-1-1V28a1.007,1.007,0,0,0-.993-1A1.885,1.885,0,0,1,21,25H19a3.788,3.788,0,0,0,3,3.874V36H21a3,3,0,0,1-3-3ZM36.894,42A4.586,4.586,0,0,1,32,46a4.586,4.586,0,0,1-4.894-4ZM15,23a1,1,0,0,1-1-1V17h2v6ZM7.892,36.306,10.586,39,10,39.586,8.707,38.293,7.293,39.707,8.586,41l-.937.937a16.309,16.309,0,0,0-3.085-2.259A27.753,27.753,0,0,1,7.892,36.306ZM8.006,62h-6A181.948,181.948,0,0,1,3.787,41.544C5.618,42.625,8.947,45.106,9,48.908A79.383,79.383,0,0,0,8.006,62ZM16,62H10.007q.014-1.591.065-3H12v1h2V59h2Zm31-3H46v2h1v1H37V61h1V59H37V57h2v1h2V57h2v1h2V57h2Zm2,3V61h1V59H49V56a1,1,0,0,0-1-1H45V54H43v1H41V54H39v1H36a1,1,0,0,0-1,1v3H34v2h1v1H18V58a1,1,0,0,0-1-1H14V56H12v1H10.161a63.339,63.339,0,0,1,.819-7.8A.909.909,0,0,0,11,49a9,9,0,0,0-2-5.582l1-1,1.293,1.293,1.414-1.414L11.414,41l1.293-1.293a1,1,0,0,0,0-1.414L9.485,35.071A16.871,16.871,0,0,1,16,32.129V33a5.006,5.006,0,0,0,5,5h1v1a3,3,0,0,0,3,3h.074A6.619,6.619,0,0,0,32,48a6.619,6.619,0,0,0,6.926-6H39a3,3,0,0,0,3-3V38h1a5.006,5.006,0,0,0,5-5v-.871a16.871,16.871,0,0,1,6.515,2.942l-3.222,3.222a1,1,0,0,0,0,1.414L52.586,41l-1.293,1.293,1.414,1.414L54,42.414l1,1A9,9,0,0,0,53,49a.925.925,0,0,0,.02.2A77.1,77.1,0,0,1,53.993,62Zm6.994,0A79.383,79.383,0,0,0,55,48.908c.054-3.786,3.382-6.274,5.214-7.361A182.066,182.066,0,0,1,61.994,62Z"/><path d="M37,28H27a1,1,0,0,0-1,1v8a1,1,0,0,0,1,1H37a1,1,0,0,0,1-1V29A1,1,0,0,0,37,28Zm-1,8H35V34H33v2H28V30h1v2h2V30h5Z"/><path d="M32,19a6,6,0,1,0-6,6A6.006,6.006,0,0,0,32,19Zm-3.382-3H23.382a3.927,3.927,0,0,1,5.236,0ZM22,19a3.939,3.939,0,0,1,.142-1H25v2h2V18h2.858A3.939,3.939,0,0,1,30,19a4,4,0,0,1-8,0Z"/><path d="M39,14a5,5,0,1,0,5,5A5.006,5.006,0,0,0,39,14Zm0,8a3,3,0,1,1,3-3A3,3,0,0,1,39,22Z"/><rect x="38" y="18" width="2" height="2"/></g></svg>