<svg xmlns="http://www.w3.org/2000/svg" viewBox="0 0 512 512"><title>Artboard 150</title><g id="Criminal"><rect x="341.33333" y="192" width="42.66667" height="64" rx="21.33331" ry="21.33331" style="fill:#361200"/><rect x="128" y="192" width="42.66667" height="64" rx="21.33331" ry="21.33331" style="fill:#552a1f"/><path d="M192,277.33333v64a21.33334,21.33334,0,0,1-21.33333,21.33334h-64A85.33333,85.33333,0,0,0,21.33333,448v42.66667H490.66667V448a85.33333,85.33333,0,0,0-85.33334-85.33333h-64A21.33334,21.33334,0,0,1,320,341.33333v-64Z" style="fill:#552a1f"/><path d="M341.33333,362.66667A21.33356,21.33356,0,0,1,320,341.33333v-64H256v85.33334h21.33333V384H234.66667v21.33333a21.33333,21.33333,0,1,0,42.66666,0h85.33334V362.66667Z" style="fill:#361200"/><path d="M192,320H320a21.33333,21.33333,0,0,1,21.33333,21.33333v21.33334h64A85.33333,85.33333,0,0,1,490.66667,448v42.66667H21.33333V448a85.33333,85.33333,0,0,1,85.33334-85.33333h64V341.33333A21.33333,21.33333,0,0,1,192,320Z" style="fill:#133846"/><rect x="320" y="341.33333" width="21.33333" height="42.66667" style="fill:#224552"/><path d="M256,362.66667a106.39486,106.39486,0,0,1-71.13542-27.1875l14.22917-15.875c31.32292,28,82.52083,28.02083,113.83333-.02084l14.22917,15.875A106.42809,106.42809,0,0,1,256,362.66667Z" style="fill:#224552"/><path d="M256,362.66667a106.39486,106.39486,0,0,1-71.13542-27.1875l14.22917-15.875A85.2673,85.2673,0,0,0,256,341.33333Z" style="fill:#345460"/><rect x="149.33333" y="42.66667" width="213.33333" height="298.66656" rx="106.66656" ry="106.66656" style="fill:#8f492b"/><path d="M320,64.48307v84.85026H277.33333v21.33334H320v42.66659a21.33333,21.33333,0,0,1,21.33333,21.33333v.00008A21.33333,21.33333,0,0,1,320,256H256v64h21.33333v19.18359a106.69065,106.69065,0,0,0,85.33334-104.51692V149.33333C362.66667,114.54948,345.76562,83.95443,320,64.48307Z" style="fill:#552a1f"/><path d="M186.625,185.10417,176.04167,166.5625C196.36458,154.97917,222.52083,149.33333,256,149.33333h21.33333v21.33334H256C226.32292,170.66667,203.63542,175.39583,186.625,185.10417Z" style="fill:#552a1f"/><path d="M128,149.33333v-.00012A127.99987,127.99987,0,0,1,255.99987,21.33333h.00026A127.99987,127.99987,0,0,1,384,149.33321v.00012Z" style="fill:#133846"/><rect x="234.66667" y="21.33333" width="21.33333" height="85.33333" style="fill:#062d3c"/><rect x="256" y="21.33333" width="21.33333" height="85.33333" style="fill:#224552"/><rect x="256" y="64" width="21.33333" height="42.66667" style="fill:#133846"/><rect x="277.33333" y="42.66667" width="21.33333" height="85.33333" style="fill:#062d3c"/><rect x="277.33333" y="64" width="21.33333" height="64" style="fill:#012334"/><rect x="298.66667" y="42.66667" width="21.33333" height="85.33333" style="fill:#224552"/><rect x="298.66667" y="64" width="21.33333" height="64" style="fill:#133846"/><rect x="341.33333" y="85.33333" width="21.33333" height="64" style="fill:#133846"/><rect x="320" y="64" width="21.33333" height="85.33333" style="fill:#012334"/><rect x="341.33333" y="85.33333" width="21.33333" height="64" style="fill:#012334"/><rect x="192" y="42.66667" width="21.33333" height="64" style="fill:#062d3c"/><rect x="213.33333" y="42.66667" width="21.33333" height="64" style="fill:#224552"/><rect x="149.33333" y="85.33333" width="21.33333" height="42.66667" style="fill:#062d3c"/><rect x="170.66667" y="64" width="21.33333" height="64" style="fill:#224552"/><rect x="341.33333" y="170.66667" width="21.33333" height="42.66665" style="fill:#012334"/><rect x="149.33333" y="170.6666" width="21.33333" height="42.66673" style="fill:#062d3c"/><polygon points="234.667 234.667 234.667 256 277.333 256 277.333 192 320 192 320 170.667 256 170.667 256 234.667 234.667 234.667" style="fill:#361200"/><rect x="298.66667" y="192" width="21.33333" height="21.33333" style="fill:#290300"/><rect x="192" y="192" width="21.33333" height="21.33333" style="fill:#290300"/><rect x="234.66667" y="277.33333" width="42.66667" height="21.33333" style="fill:#c6262d"/><path d="M64,490.66667H42.66667V448a64.07,64.07,0,0,1,64-64v21.33333A42.71556,42.71556,0,0,0,64,448Z" style="fill:#224552"/><path d="M128,170.66666,149.33331,192S170.66667,149.33333,256,149.33333,362.66665,192,362.66665,192L384,170.66666V128S341.33333,85.33333,256,85.33333,128,128,128,128Z" style="fill:#345460"/><path d="M369.20833,143.77083C331.58333,107.08333,256.75,106.66667,256,106.66667V85.33333c3.42708,0,84.33333.5,128.10417,43.14584Z" style="fill:#4c6a74"/><path d="M142.79167,143.77083l-14.89584-15.29166C171.66667,85.83333,252.57292,85.33333,256,85.33333l.01042,21.33334C255.25,106.66667,180.30208,107.20833,142.79167,143.77083Z" style="fill:#607a8a"/><path d="M360.28125,187.35417C324.375,147.45833,257.0625,149.39583,256.375,149.33333L255.625,128c3.16667.02083,77.98958-2.16667,120.51042,45.10417Z" style="fill:#133846"/><rect x="341.33333" y="128" width="21.33333" height="42.66667" style="fill:#4c6a74"/><rect x="320" y="106.66667" width="21.33333" height="42.66667" style="fill:#133846"/><rect x="298.66667" y="106.66667" width="21.33333" height="42.66667" style="fill:#4c6a74"/><rect x="277.33333" y="106.66667" width="21.33333" height="42.66667" style="fill:#224552"/><rect x="256" y="106.66667" width="21.33333" height="42.66667" style="fill:#4c6a74"/><rect x="234.66667" y="106.66667" width="21.33333" height="42.66667" style="fill:#224552"/><rect x="213.33333" y="106.66667" width="21.33333" height="42.66667" style="fill:#4c6a74"/><rect x="192" y="106.66667" width="21.33333" height="42.66667" style="fill:#224552"/><rect x="170.66667" y="106.66667" width="21.33333" height="42.66667" style="fill:#4c6a74"/><rect x="149.33333" y="128" width="21.33333" height="42.66667" style="fill:#224552"/><rect x="298.66667" y="405.33333" width="21.33333" height="85.33333" style="fill:#062d3c"/><rect x="277.33333" y="426.66667" width="21.33333" height="64" style="fill:#224552"/><rect x="256" y="405.33333" width="21.33333" height="85.33333" style="fill:#062d3c"/><rect x="234.66667" y="405.33333" width="21.33333" height="85.33333" style="fill:#224552"/><rect x="213.33333" y="426.66667" width="21.33333" height="64" style="fill:#133846"/><rect x="192" y="405.33333" width="21.33333" height="85.33333" style="fill:#345460"/><rect x="170.66667" y="405.33333" width="21.33333" height="85.33333" style="fill:#133846"/><rect x="149.33333" y="362.66667" width="21.33333" height="128" style="fill:#345460"/><rect x="128" y="384" width="21.33333" height="106.66667" style="fill:#133846"/><rect x="106.66667" y="384" width="21.33333" height="106.66667" style="fill:#345460"/><rect x="85.33333" y="384" width="21.33333" height="106.66667" style="fill:#133846"/><rect x="64" y="405.33333" width="21.33333" height="85.33333" style="fill:#345460"/><rect x="341.33333" y="362.66667" width="21.33333" height="128" style="fill:#062d3c"/><rect x="320" y="405.33333" width="21.33333" height="85.33333" style="fill:#224552"/><rect x="384" y="384" width="21.33333" height="106.66667" style="fill:#062d3c"/><rect x="362.66667" y="384" width="21.33333" height="106.66667" style="fill:#224552"/><rect x="426.66667" y="384" width="21.33333" height="106.66667" style="fill:#062d3c"/><rect x="469.33333" y="448" width="21.33333" height="42.66667" style="fill:#062d3c"/><rect x="405.33333" y="384" width="21.33333" height="106.66667" style="fill:#224552"/><rect x="448" y="405.33333" width="21.33333" height="85.33333" style="fill:#224552"/><path d="M298.66667,426.66667H256V405.33333h42.66667a42.71554,42.71554,0,0,0,42.66666-42.66666h21.33334A64.07,64.07,0,0,1,298.66667,426.66667Z" style="fill:#062d3c"/><path d="M256,426.66667H213.33333a64.07,64.07,0,0,1-64-64h21.33334a42.71554,42.71554,0,0,0,42.66666,42.66666H256Z" style="fill:#224552"/><rect x="277.33333" y="341.33333" width="21.33333" height="42.66667" style="fill:#224552"/><rect x="234.66667" y="362.66667" width="21.33333" height="21.33333" style="fill:#224552"/><rect x="192" y="341.33333" width="21.33333" height="42.66667" style="fill:#345460"/><rect x="298.66667" y="341.33333" width="21.33333" height="42.66667" style="fill:#062d3c"/><rect x="256" y="362.66667" width="21.33333" height="21.33333" style="fill:#062d3c"/></g></svg>