<svg width="88" height="44" viewBox="0 0 88 44" fill="none" xmlns="http://www.w3.org/2000/svg">
<g id="Logo">
<g id="Logo_2">
<path d="M29.5496 31.5236C28.2892 31.4528 27.0405 31.1814 25.8035 30.7094C24.5898 30.2373 23.4578 29.6826 22.4074 29.0454C21.3805 28.4081 20.5286 27.818 19.8517 27.2752C19.0581 27.7708 18.2179 28.1485 17.3309 28.4081C16.444 28.6913 15.6154 28.8329 14.8452 28.8329C14.6818 28.8329 14.5301 28.8211 14.3901 28.7975C14.25 28.7975 14.11 28.7857 13.9699 28.7621C12.5929 28.5261 11.6126 28.0659 11.0291 27.3814C10.4456 26.6969 10.1538 25.977 10.1538 25.2217C10.1538 24.6317 10.2939 24.0652 10.5739 23.5224C10.854 22.9795 11.2391 22.5428 11.7293 22.2124C12.2194 21.8584 12.7679 21.6813 13.3748 21.6813C14.0983 21.6813 14.8685 21.8702 15.6855 22.2478C16.5257 22.6255 17.3193 23.0857 18.0662 23.6286C18.8364 24.1478 19.4782 24.6435 19.9917 25.1155C21.1121 24.0298 22.0223 22.8025 22.7225 21.4335C23.4461 20.0646 24.1696 18.6956 24.8932 17.3267C23.7262 17.2323 22.5942 16.949 21.4972 16.477C20.4002 16.0049 19.5016 15.344 18.8014 14.4943C18.1012 13.6447 17.7511 12.6415 17.7511 11.485C17.7511 10.1869 18.0428 9.10115 18.6263 8.22785C19.2098 7.33095 19.9334 6.65828 20.797 6.20983C21.6606 5.76138 22.5125 5.53716 23.3527 5.53716C24.2397 5.53716 24.9982 5.78498 25.6284 6.28064C26.2819 6.77629 26.6087 7.54338 26.6087 8.58189C26.6087 8.93593 26.4803 9.11295 26.2236 9.11295C26.1302 9.11295 26.0369 9.06575 25.9435 8.97134C25.8735 8.85332 25.8385 8.71171 25.8385 8.54649C25.8385 7.7912 25.5934 7.21294 25.1032 6.8117C24.6364 6.41045 24.0646 6.20983 23.3877 6.20983C22.7809 6.20983 22.1624 6.39865 21.5322 6.77629C20.9253 7.13033 20.4119 7.69679 19.9917 8.47568C19.5716 9.23097 19.3615 10.2105 19.3615 11.4142C19.3615 12.854 19.8984 14.0577 20.972 15.0254C22.0457 15.9931 23.5161 16.477 25.3833 16.477C26.0835 15.0844 26.7837 13.7627 27.484 12.5117C28.2075 11.2372 28.9427 10.1515 29.6896 9.25457C31.0433 7.62599 32.3154 6.52846 33.5057 5.962C34.6961 5.37194 35.6997 5.0769 36.5166 5.0769C37.1001 5.0769 37.5786 5.17131 37.9521 5.36014C38.3255 5.52535 38.5706 5.72598 38.6873 5.962C38.944 6.48126 39.0724 6.98872 39.0724 7.48437C39.0724 8.31046 38.804 9.16016 38.2672 10.0335C37.7537 10.9068 37.0651 11.7446 36.2015 12.5471C35.338 13.3496 34.3927 14.0931 33.3657 14.7776C32.3387 15.4385 31.3234 15.9931 30.3198 16.4416C29.3162 16.8664 28.4176 17.1378 27.624 17.2559C26.7604 19.1441 25.8151 20.8317 24.7882 22.3186C23.7845 23.8056 22.6642 25.0093 21.4272 25.9298C21.9173 26.3075 22.5008 26.7087 23.1777 27.1336C23.8779 27.5584 24.6014 27.9596 25.3483 28.3373C26.0952 28.7149 26.8071 29.0454 27.484 29.3286C28.1608 29.6118 28.7327 29.8125 29.1995 29.9305C29.5729 30.0013 30.0047 30.0721 30.4948 30.1429C31.0083 30.2137 31.5218 30.2491 32.0353 30.2491C32.9456 30.2491 33.7975 30.0957 34.5911 29.7888C35.3846 29.5056 35.8864 28.9274 36.0965 28.0541C36.1199 27.8888 36.2482 27.8062 36.4816 27.8062C36.5983 27.8062 36.7034 27.8416 36.7967 27.9124C36.8901 27.9832 36.9134 28.1013 36.8667 28.2665C36.5633 29.4938 35.7347 30.3671 34.381 30.8864C33.0273 31.4056 31.4168 31.6181 29.5496 31.5236ZM28.1141 16.1937C28.9544 16.0285 29.818 15.7217 30.7049 15.2732C31.5918 14.8012 32.4554 14.2465 33.2957 13.6093C34.1593 12.972 34.9295 12.2993 35.6064 11.5912C36.3066 10.8595 36.8784 10.1515 37.3219 9.46699C37.6486 8.92413 37.882 8.45208 38.0221 8.05083C38.1855 7.64959 38.2672 7.30735 38.2672 7.02412C38.2672 6.36325 37.9287 6.03281 37.2519 6.03281C36.575 6.03281 35.7697 6.32784 34.8361 6.91791C34.0426 7.41356 33.144 8.22785 32.1403 9.36078C31.1367 10.4937 30.1097 12.0987 29.0594 14.1757C28.756 14.813 28.4409 15.4857 28.1141 16.1937ZM14.4251 28.0895C15.172 28.0895 15.8955 27.9478 16.5957 27.6646C17.2959 27.3814 17.9378 27.0037 18.5213 26.5317C17.7511 25.8944 16.9808 25.2925 16.2106 24.7261C15.4637 24.136 14.7752 23.6876 14.145 23.3807C13.8883 23.2391 13.6315 23.1447 13.3748 23.0975C13.1414 23.0267 12.9313 22.9913 12.7446 22.9913C12.1844 22.9913 11.7643 23.1919 11.4842 23.5932C11.2041 23.9708 11.0641 24.4193 11.0641 24.9385C11.0641 25.4106 11.1808 25.8944 11.4142 26.3901C11.6709 26.8857 12.0444 27.287 12.5345 27.5938C13.048 27.9242 13.6782 28.0895 14.4251 28.0895Z" fill="#65647C"/>
<path d="M38.2888 27.9478C37.1451 27.9478 36.3165 27.5348 35.803 26.7087C35.2895 25.859 35.0328 24.8795 35.0328 23.7702C35.0328 22.7317 35.2195 21.6932 35.593 20.6546C35.9897 19.5925 36.5266 18.7074 37.2034 17.9993C37.9036 17.2913 38.7206 16.9372 39.6542 16.9372C39.7008 16.9372 39.8059 16.949 39.9693 16.9726C40.1326 16.9726 40.2377 16.9844 40.2844 17.008C40.9846 16.3 41.7081 15.9459 42.455 15.9459C43.1319 15.9459 43.7037 16.2527 44.1705 16.8664C44.6607 17.4565 44.9057 18.2944 44.9057 19.3801C44.9057 20.1354 44.789 20.9379 44.5556 21.7876C44.3222 22.6373 44.0188 23.4397 43.6454 24.195C43.2952 24.9267 42.9101 25.5286 42.49 26.0006C42.5834 26.0242 42.6651 26.036 42.7351 26.036C42.8051 26.036 42.8868 26.036 42.9802 26.036C43.7971 26.036 44.6023 25.8236 45.3959 25.3988C46.1894 24.9739 46.9363 24.4193 47.6365 23.7348C48.3601 23.0267 48.9903 22.2596 49.5271 21.4335C49.6438 21.2919 49.7255 21.2211 49.7722 21.2211C49.8889 21.2211 49.9472 21.3037 49.9472 21.4689C49.9472 21.6341 49.9005 21.7758 49.8072 21.8938C49.5738 22.3186 49.212 22.8143 48.7219 23.3807C48.2317 23.9236 47.6599 24.4665 47.0064 25.0093C46.3762 25.5522 45.6993 26.0006 44.9757 26.3547C44.2522 26.7087 43.5287 26.8857 42.8051 26.8857C42.6417 26.8857 42.4667 26.8739 42.2799 26.8503C42.1166 26.8031 41.9532 26.7677 41.7898 26.7441C41.4164 27.0982 40.8795 27.3814 40.1793 27.5938C39.4791 27.8298 38.8489 27.9478 38.2888 27.9478ZM41.5097 25.682C42.1866 24.9267 42.7117 23.959 43.0852 22.7789C43.4586 21.5987 43.6454 20.4658 43.6454 19.3801C43.6454 19.2385 43.6454 19.0969 43.6454 18.9552C43.6454 18.8136 43.6337 18.6838 43.6103 18.5658C43.5403 17.9521 43.4003 17.5155 43.1902 17.2559C42.9802 16.9726 42.7351 16.831 42.455 16.831C42.0349 16.831 41.5914 17.0906 41.1246 17.6099C40.6811 18.1056 40.366 18.7074 40.1793 19.4155C39.9926 20.1 39.8992 20.8199 39.8992 21.5751C39.8992 22.4484 40.0276 23.2745 40.2844 24.0534C40.5411 24.8087 40.9496 25.3516 41.5097 25.682ZM38.989 27.0273C39.6658 27.0273 40.296 26.7913 40.8795 26.3193C40.226 25.8472 39.7475 25.1981 39.4441 24.372C39.1407 23.546 38.989 22.6727 38.989 21.7522C38.989 21.0913 39.059 20.4422 39.199 19.8049C39.3624 19.1441 39.5841 18.554 39.8642 18.0347C39.4208 18.1292 38.989 18.5186 38.5688 19.2031C38.1487 19.8875 37.7986 20.69 37.5185 21.6105C37.2618 22.531 37.1334 23.4161 37.1334 24.2658C37.1334 25.0447 37.2735 25.7056 37.5535 26.2485C37.8336 26.7677 38.3121 27.0273 38.989 27.0273Z" fill="#65647C"/>
<path d="M46.7766 38.9231C45.983 38.9231 45.3178 38.746 44.781 38.392C44.2442 38.038 43.9758 37.5423 43.9758 36.905C43.9758 36.2206 44.3492 35.4299 45.0961 34.533C45.5862 33.9665 46.2164 33.4355 46.9867 32.9398C47.7335 32.4677 48.5388 32.0075 49.4024 31.559C50.266 31.1342 51.1179 30.7212 51.9581 30.3199C52.7984 29.9187 53.5453 29.5174 54.1988 29.1162C54.3155 28.6677 54.5022 28.0895 54.759 27.3814C55.0157 26.6733 55.2141 26.0596 55.3541 25.5404C54.934 26.0832 54.4205 26.6025 53.8137 27.0982C53.2068 27.5938 52.53 27.8416 51.7831 27.8416C50.6394 27.8416 49.8575 27.523 49.4374 26.8857C49.0173 26.2485 48.8072 25.4932 48.8072 24.6199C48.8072 24.077 48.8772 23.5224 49.0173 22.9559C49.1573 22.3658 49.309 21.8466 49.4724 21.3981C49.7291 20.7844 50.0909 20.159 50.5577 19.5217C51.0479 18.8608 51.6314 18.3062 52.3082 17.8577C53.0084 17.4093 53.7903 17.185 54.6539 17.185C55.6109 17.185 56.2761 17.3621 56.6495 17.7161C57.0463 18.0465 57.2914 18.318 57.3847 18.5304C57.4314 18.672 57.4548 18.7664 57.4548 18.8136C57.4548 19.0497 57.3264 19.1677 57.0696 19.1677C56.8829 19.1677 56.7312 19.0969 56.6145 18.9552C56.3111 18.6012 56.0193 18.3534 55.7393 18.2118C55.4592 18.0465 55.1908 17.9639 54.934 17.9639C54.4672 17.9639 54.0354 18.1882 53.6386 18.6366C53.2418 19.0615 52.8917 19.5807 52.5883 20.1944C52.2849 20.7844 52.0048 21.3391 51.7481 21.8584C51.608 22.1652 51.433 22.6609 51.2229 23.3453C51.0362 24.0298 50.9428 24.6907 50.9428 25.328C50.9428 25.7764 51.0245 26.1658 51.1879 26.4963C51.3746 26.8267 51.6897 26.9919 52.1332 26.9919C52.6934 26.9919 53.2185 26.7795 53.7087 26.3547C54.1988 25.9298 54.6306 25.4224 55.004 24.8323C55.3775 24.2422 55.6692 23.7112 55.8793 23.2391C56.4628 21.941 56.9179 20.9143 57.2447 20.159C57.5715 19.3801 57.8866 18.7428 58.19 18.2472C58.4934 17.7279 58.8785 17.2087 59.3453 16.6894C59.6021 16.4062 59.8471 16.2055 60.0805 16.0875C60.3373 15.9695 60.5707 15.9105 60.7807 15.9105C61.1075 15.9105 61.3643 16.0167 61.551 16.2291C61.761 16.418 61.8661 16.6422 61.8661 16.9018C61.8661 17.2559 61.6677 17.5391 61.2709 17.7515C60.8508 17.9639 60.4773 18.1528 60.1506 18.318C59.8238 18.4832 59.5437 18.6838 59.3103 18.9198C58.5634 19.6751 58.0266 20.5956 57.6998 21.6813C57.3964 22.7435 57.1747 23.8528 57.0346 25.0093C56.9179 26.1658 56.7546 27.2516 56.5445 28.2665C57.4548 27.6528 58.2717 27.0391 58.9952 26.4255C59.7421 25.8118 60.454 25.1273 61.1309 24.372C61.8311 23.6168 62.5546 22.7081 63.3015 21.6459C63.4182 21.4571 63.5699 21.3627 63.7566 21.3627C63.85 21.3627 63.8967 21.4217 63.8967 21.5397C63.8967 21.6813 63.8383 21.823 63.7216 21.9646C62.9981 22.9795 62.2979 23.9 61.621 24.7261C60.9441 25.5522 60.1972 26.3311 59.3803 27.0627C58.5634 27.7944 57.5715 28.5497 56.4044 29.3286C56.0077 31.146 55.3775 32.6566 54.5139 33.8603C53.6736 35.064 52.775 36.0199 51.8181 36.728C50.8845 37.4597 50.0559 37.9908 49.3324 38.3212C48.4221 38.7224 47.5702 38.9231 46.7766 38.9231ZM45.9013 38.1442C46.6249 38.1442 47.4068 37.8845 48.247 37.3653C49.414 36.6572 50.4644 35.7131 51.398 34.533C52.3549 33.3528 53.1835 31.8659 53.8837 30.0721C53.3002 30.3789 52.6 30.7094 51.7831 31.0634C50.9662 31.4174 50.2426 31.7951 49.6124 32.1963C48.8889 32.6212 48.212 33.0696 47.5818 33.5417C46.9516 34.0137 46.4265 34.5212 46.0064 35.064C45.2361 36.0553 44.851 36.8106 44.851 37.3299C44.851 37.8727 45.2011 38.1442 45.9013 38.1442Z" fill="#65647C"/>
<path d="M66.1877 27.9478C65.044 27.9478 64.2154 27.5348 63.7019 26.7087C63.1884 25.859 62.9317 24.8795 62.9317 23.7702C62.9317 22.7317 63.1184 21.6932 63.4919 20.6546C63.8886 19.5925 64.4255 18.7074 65.1023 17.9993C65.8026 17.2913 66.6195 16.9372 67.5531 16.9372C67.5998 16.9372 67.7048 16.949 67.8682 16.9726C68.0315 16.9726 68.1366 16.9844 68.1833 17.008C68.8835 16.3 69.607 15.9459 70.3539 15.9459C71.0308 15.9459 71.6026 16.2527 72.0694 16.8664C72.5596 17.4565 72.8046 18.2944 72.8046 19.3801C72.8046 20.1354 72.6879 20.9379 72.4545 21.7876C72.2211 22.6373 71.9177 23.4397 71.5443 24.195C71.1941 24.9267 70.809 25.5286 70.3889 26.0006C70.4823 26.0242 70.564 26.036 70.634 26.036C70.704 26.036 70.7857 26.036 70.8791 26.036C71.696 26.036 72.5012 25.8236 73.2948 25.3988C74.0883 24.9739 74.8352 24.4193 75.5354 23.7348C76.259 23.0267 76.8892 22.2596 77.426 21.4335C77.5427 21.2919 77.6244 21.2211 77.6711 21.2211C77.7878 21.2211 77.8461 21.3037 77.8461 21.4689C77.8461 21.6341 77.7994 21.7758 77.7061 21.8938C77.4727 22.3186 77.1109 22.8143 76.6208 23.3807C76.1306 23.9236 75.5588 24.4665 74.9053 25.0093C74.2751 25.5522 73.5982 26.0006 72.8747 26.3547C72.1511 26.7087 71.4276 26.8857 70.704 26.8857C70.5406 26.8857 70.3656 26.8739 70.1788 26.8503C70.0155 26.8031 69.8521 26.7677 69.6887 26.7441C69.3153 27.0982 68.7784 27.3814 68.0782 27.5938C67.378 27.8298 66.7478 27.9478 66.1877 27.9478ZM69.4086 25.682C70.0855 24.9267 70.6106 23.959 70.9841 22.7789C71.3575 21.5987 71.5443 20.4658 71.5443 19.3801C71.5443 19.2385 71.5443 19.0969 71.5443 18.9552C71.5443 18.8136 71.5326 18.6838 71.5092 18.5658C71.4392 17.9521 71.2992 17.5155 71.0891 17.2559C70.8791 16.9726 70.634 16.831 70.3539 16.831C69.9338 16.831 69.4903 17.0906 69.0235 17.6099C68.58 18.1056 68.265 18.7074 68.0782 19.4155C67.8915 20.1 67.7981 20.8199 67.7981 21.5751C67.7981 22.4484 67.9265 23.2745 68.1833 24.0534C68.44 24.8087 68.8485 25.3516 69.4086 25.682ZM66.8879 27.0273C67.5647 27.0273 68.1949 26.7913 68.7784 26.3193C68.1249 25.8472 67.6464 25.1981 67.343 24.372C67.0396 23.546 66.8879 22.6727 66.8879 21.7522C66.8879 21.0913 66.9579 20.4422 67.0979 19.8049C67.2613 19.1441 67.4831 18.554 67.7631 18.0347C67.3197 18.1292 66.8879 18.5186 66.4678 19.2031C66.0476 19.8875 65.6975 20.69 65.4174 21.6105C65.1607 22.531 65.0323 23.4161 65.0323 24.2658C65.0323 25.0447 65.1724 25.7056 65.4524 26.2485C65.7325 26.7677 66.211 27.0273 66.8879 27.0273Z" fill="#65647C"/>
</g>
</g>
</svg>
